<?xml version="1.0" encoding="UTF-8"?>
<svg width="18px" height="18px" viewBox="0 0 18 18" version="1.1" xmlns="http://www.w3.org/2000/svg" xmlns:xlink="http://www.w3.org/1999/xlink">
   <path d="M2,1.5 C1.72385763,1.5 1.5,1.72385763 1.5,2 L1.5,4 C1.5,4.27614237 1.72385763,4.5 2,4.5 L6,4.5 C6.27614237,4.5 6.5,4.27614237 6.5,4 L6.5,2 C6.5,1.72385763 6.27614237,1.5 6,1.5 L2,1.5 Z M2,0 L6,0 C7.1045695,-2.02906125e-16 8,0.8954305 8,2 L8,4 C8,5.1045695 7.1045695,6 6,6 L2,6 C0.8954305,6 1.3527075e-16,5.1045695 0,4 L0,2 C-1.3527075e-16,0.8954305 0.8954305,2.02906125e-16 2,0 Z M2,9.5 C1.72385763,9.5 1.5,9.72385763 1.5,10 L1.5,16 C1.5,16.2761424 1.72385763,16.5 2,16.5 L6,16.5 C6.27614237,16.5 6.5,16.2761424 6.5,16 L6.5,10 C6.5,9.72385763 6.27614237,9.5 6,9.5 L2,9.5 Z M2,8 L6,8 C7.1045695,8 8,8.8954305 8,10 L8,16 C8,17.1045695 7.1045695,18 6,18 L2,18 C0.8954305,18 1.3527075e-16,17.1045695 0,16 L0,10 C-1.3527075e-16,8.8954305 0.8954305,8 2,8 Z M12,1.5 C11.7238576,1.5 11.5,1.72385763 11.5,2 L11.5,16 C11.5,16.2761424 11.7238576,16.5 12,16.5 L16,16.5 C16.2761424,16.5 16.5,16.2761424 16.5,16 L16.5,2 C16.5,1.72385763 16.2761424,1.5 16,1.5 L12,1.5 Z M12,0 L16,0 C17.1045695,-2.02906125e-16 18,0.8954305 18,2 L18,16 C18,17.1045695 17.1045695,18 16,18 L12,18 C10.8954305,18 10,17.1045695 10,16 L10,2 C10,0.8954305 10.8954305,2.02906125e-16 12,0 Z"></path>
</svg>