<?xml version="1.0" encoding="UTF-8"?>
<svg width="16px" height="18px" viewBox="0 0 16 18" version="1.1" xmlns="http://www.w3.org/2000/svg" xmlns:xlink="http://www.w3.org/1999/xlink">
    <path d="M1.66213769,7.13142293 C1.55882318,7.22612789 1.5,7.35984681 1.5,7.5 L1.5,15.2868632 C1.5,15.5630056 1.72385763,15.7868632 2,15.7868632 L14,15.7868632 C14.2761424,15.7868632 14.5,15.5630056 14.5,15.2868632 L14.5,7.5 C14.5,7.35984681 14.4411768,7.22612789 14.3378623,7.13142293 L8.33786231,1.63142293 C8.14670169,1.45619236 7.85329831,1.45619236 7.66213769,1.63142293 L1.66213769,7.13142293 Z M0.648550743,6.02569172 L6.64855074,0.52569172 C7.41319324,-0.175230573 8.58680676,-0.175230573 9.35144926,0.52569172 L15.3514493,6.02569172 C15.7647073,6.40451157 16,6.93938724 16,7.5 L16,15.2868632 C16,16.3914327 15.1045695,17.2868632 14,17.2868632 L2,17.2868632 C0.8954305,17.2868632 -3.41744293e-15,16.3914327 -3.55271368e-15,15.2868632 L-2.66453526e-15,7.5 C-2.73319052e-15,6.93938724 0.235292724,6.40451157 0.648550743,6.02569172 Z"></path>
</svg>