<?xml version="1.0" encoding="UTF-8"?>
<svg width="40px" height="27px" viewBox="0 0 40 27" version="1.1" xmlns="http://www.w3.org/2000/svg" xmlns:xlink="http://www.w3.org/1999/xlink">
    <defs>
        <polygon id="path-1" points="0.0863253131 0.0679024691 5.61399672 0.0679024691 5.61399672 5.57142857 0.0863253131 5.57142857"></polygon>
        <polygon id="path-3" points="0.0517764595 0.0679024691 5.57958518 0.0679024691 5.57958518 5.57142857 0.0517764595 5.57142857"></polygon>
        <polygon id="path-5" points="0.086376334 0.0679024691 5.61409295 0.0679024691 5.61409295 5.57142857 0.086376334 5.57142857"></polygon>
        <polygon id="path-7" points="0.0517764595 0.0679024691 5.57958518 0.0679024691 5.57958518 5.57142857 0.0517764595 5.57142857"></polygon>
    </defs>
    <g id="Symbols" stroke="none" stroke-width="1" fill="none" fill-rule="evenodd">
        <g id="nav-/-appswitcher" transform="translate(-30.000000, -37.000000)">
            <g id="business">
                <g transform="translate(15.000000, 15.000000)">
                    <g id="ui-/-logo-/-worksweet-icon" transform="translate(15.000000, 22.495005)">
                        <g id="Group-3" stroke-width="1" transform="translate(7.461140, 20.289389)">
                            <mask id="mask-2" fill="white">
                                <use xlink:href="#path-1"></use>
                            </mask>
                            <g id="Clip-2"></g>
                            <path d="M4.23189637,0.436985714 C5.5535544,1.19676349 6.00640415,2.87933492 5.24329534,4.19522381 C4.48018653,5.5111127 2.79023834,5.96219206 1.46858031,5.20241429 C0.14692228,4.44263651 -0.306134715,2.75985873 0.456974093,1.44396984 C1.2200829,0.128080952 2.91023834,-0.322792063 4.23189637,0.436985714" id="Fill-1" fill="#0B0E32" mask="url(#mask-2)"></path>
                        </g>
                        <polygon id="Fill-4" fill="#0B0E32" points="20.2519793 11.4690746 12.7044145 24.4847571 7.91809326 21.7332968 15.465658 8.71782063"></polygon>
                        <path d="M19.2404974,7.71075397 C20.5621554,8.47053175 21.0150052,10.1531032 20.2518964,11.4689921 C19.4889948,12.7850873 17.7988394,13.2359603 16.4771813,12.4761825 C15.1555233,11.7164048 14.7024663,10.033627 15.4657824,8.7177381 C16.2286839,7.40184921 17.9188394,6.95097619 19.2404974,7.71075397" id="Fill-6" fill="#0B0E32"></path>
                        <g id="Group-10" stroke-width="1" transform="translate(22.590674, 20.289389)">
                            <mask id="mask-4" fill="white">
                                <use xlink:href="#path-3"></use>
                            </mask>
                            <g id="Clip-9"></g>
                            <path d="M4.19728497,0.436985714 C5.51915026,1.19676349 5.972,2.87933492 5.20889119,4.19522381 C4.44578238,5.5111127 2.75562694,5.96219206 1.43396891,5.20241429 C0.112310881,4.44263651 -0.340746114,2.75985873 0.422569948,1.44396984 C1.18567876,0.128080952 2.87562694,-0.322792063 4.19728497,0.436985714" id="Fill-8" fill="#E22D5D" mask="url(#mask-4)"></path>
                        </g>
                        <polygon id="Fill-11" fill="#3C6FED" points="39.4919793 4.32099365 27.799544 24.4846127 23.0132228 21.7333587 34.705658 1.56973968"></polygon>
                        <path d="M38.480601,0.562590476 C39.8022591,1.32236825 40.2553161,3.00493968 39.492,4.32103492 C38.7288912,5.63692381 37.038943,6.08779683 35.717285,5.32801905 C34.3954197,4.56824127 33.9425699,2.88566984 34.7056788,1.5695746 C35.4687876,0.253685714 37.158943,-0.197187302 38.480601,0.562590476" id="Fill-13" fill="#3C6FED"></path>
                        <g id="Group-17" stroke-width="1" transform="translate(7.461140, 20.289389)">
                            <mask id="mask-6" fill="white">
                                <use xlink:href="#path-5"></use>
                            </mask>
                            <g id="Clip-16"></g>
                            <path d="M1.46847668,0.436985714 C0.146818653,1.19676349 -0.306031088,2.87933492 0.45707772,4.19522381 C1.22018653,5.5111127 2.91013472,5.96219206 4.23179275,5.20241429 C5.55365803,4.44263651 6.00650777,2.75985873 5.24339896,1.44396984 C4.48029016,0.128080952 2.79013472,-0.322792063 1.46847668,0.436985714" id="Fill-15" fill="#0B0E32" mask="url(#mask-6)"></path>
                        </g>
                        <polygon id="Fill-18" fill="#0B0E32" points="0.370673575 11.4690746 7.91823834 24.4847571 12.7045596 21.7332968 5.15699482 8.71782063"></polygon>
                        <path d="M1.38215544,7.71075397 C0.0604974093,8.47053175 -0.392352332,10.1531032 0.370756477,11.4689921 C1.13386528,12.7850873 2.82381347,13.2359603 4.1454715,12.4761825 C5.46712953,11.7164048 5.92018653,10.033627 5.15707772,8.7177381 C4.39396891,7.40184921 2.70381347,6.95097619 1.38215544,7.71075397" id="Fill-20" fill="#0B0E32"></path>
                        <g id="Group-24" stroke-width="1" transform="translate(22.590674, 20.289389)">
                            <mask id="mask-8" fill="white">
                                <use xlink:href="#path-7"></use>
                            </mask>
                            <g id="Clip-23"></g>
                            <path d="M1.43396891,0.436985714 C0.112310881,1.19676349 -0.340746114,2.87933492 0.422569948,4.19522381 C1.18567876,5.5111127 2.87562694,5.96219206 4.19728497,5.20241429 C5.51915026,4.44263651 5.972,2.75985873 5.20889119,1.44396984 C4.44578238,0.128080952 2.75562694,-0.322792063 1.43396891,0.436985714" id="Fill-22" fill="#3C6FED" mask="url(#mask-8)"></path>
                        </g>
                        <polygon id="Fill-25" fill="#3C6FED" points="15.4656995 11.4690746 23.0132642 24.4847571 27.7995855 21.7332968 20.2520207 8.71782063"></polygon>
                        <path d="M16.4771813,7.71075397 C15.1555233,8.47053175 14.7024663,10.1531032 15.4657824,11.4689921 C16.2286839,12.7850873 17.9188394,13.2359603 19.2404974,12.4761825 C20.5621554,11.7164048 21.0150052,10.033627 20.2518964,8.7177381 C19.4889948,7.40184921 17.7988394,6.95097619 16.4771813,7.71075397" id="Fill-27" fill="#3C6FED"></path>
                        <path d="M39.8623627,23.1090683 C39.8623627,24.6286238 38.625057,25.8603222 37.0988394,25.8603222 C35.572829,25.8603222 34.3355233,24.6286238 34.3355233,23.1090683 C34.3355233,21.5895127 35.572829,20.3578143 37.0988394,20.3578143 C38.625057,20.3578143 39.8623627,21.5895127 39.8623627,23.1090683" id="Fill-29" fill="#E22D5D"></path>
                    </g>
                </g>
            </g>
        </g>
    </g>
</svg>