<?xml version="1.0" encoding="UTF-8"?>
<svg width="19px" height="20px" viewBox="0 0 19 20" version="1.1" xmlns="http://www.w3.org/2000/svg" xmlns:xlink="http://www.w3.org/1999/xlink">
    <path fill="#0B0E32" d="M2.5,8.463 C2.5,5.175 5.175,2.5 8.463,2.5 C11.75,2.5 14.425,5.175 14.425,8.463 C14.425,11.751 11.75,14.426 8.463,14.426 C5.175,14.426 2.5,11.751 2.5,8.463 M18.446,17.754 L14.773,14.081 C16.106,12.585 16.925,10.62 16.925,8.463 C16.925,3.797 13.129,0 8.463,0 C3.797,0 2.48689958e-14,3.797 2.48689958e-14,8.463 C2.48689958e-14,13.129 3.797,16.926 8.463,16.926 C10.068,16.926 11.565,16.468 12.846,15.689 L16.679,19.522 C16.923,19.766 17.242,19.888 17.563,19.888 C17.883,19.888 18.202,19.766 18.446,19.522 C18.935,19.033 18.935,18.242 18.446,17.754"></path>
</svg>